<svg id="Capa_1" enable-background="new 0 0 512.164 512.164" height="512" viewBox="0 0 512.164 512.164" width="512" xmlns="http://www.w3.org/2000/svg"><path d="m383.515 62.578h-127.533-127.533l-33.617 57.538h161.15 161.151z" fill="#fd8087"/><path d="m417.129 120.119h-28.959l-33.618-57.544h28.958z" fill="#fe646f"/><path d="m386.878 498.909c-2.082 3.564-5.9 5.755-10.027 5.755h-120.869-120.868c-4.128 0-7.945-2.191-10.027-5.755l-30.255-51.783h161.151 161.151z" fill="#fd8087"/><path d="m417.129 447.123-30.256 51.789c-2.082 3.564-5.9 5.755-10.027 5.755h-22.294l33.619-57.544z" fill="#fe646f"/><path d="m394.967 62.649h-277.969c-5.94 0-10.756-4.816-10.756-10.756v-33.638c0-5.94 4.816-10.756 10.756-10.756h277.969c5.94 0 10.756 4.816 10.756 10.756v33.638c0 5.941-4.816 10.756-10.756 10.756z" fill="#9c9c9c"/><path d="m94.832 120.116h322.301v327.01h-322.301z" fill="#fd4755"/><path d="m388.17 120.119h28.959v327.004h-28.959z" fill="#fb2b3a"/><path d="m94.832 167.472h322.301v232.297h-322.301z" fill="#efedef"/><path d="m388.17 167.472h28.963v232.297h-28.963z" fill="#d7d0d6"/><path d="m316.931 238.934c3.002-6.987 6.743-20.514-1.286-33.656-.984-1.61-2.595-2.737-4.445-3.108-15.1-3.031-26.521 5.124-32.054 10.341-2.2 2.074-5.492 2.377-8.063.786-4.954-3.068-10.809-5.234-15.363-6.621-4.206-1.281-8.509 1.778-8.608 6.174-.283 12.692 5.692 21.371 5.692 21.371l26.387 18.453 26.387 18.453s10.203 2.634 22.026-1.987c4.095-1.601 5.492-6.692 2.845-10.203-2.865-3.802-6.908-8.558-11.491-12.159-2.376-1.87-3.221-5.067-2.027-7.844z" fill="#68ca44"/><path d="m306.707 270.546c-15.097-22.192-48.794-44.793-76.874-37.87-13.798 3.402-25.546 13.25-32.159 25.716-10.409 19.621-18.3 50.904-2.583 93.539 3.112 8.442 10.733 13.772 19.731 13.798 45.44.132 72.116-18.015 86.973-34.525 9.83-10.923 15.082-26.127 12.896-40.785-1.104-7.391-3.971-13.973-7.984-19.873z" fill="#fb2b3a"/><path d="m338.761 266.836c1.222-4.311.376-8.836-2.322-12.415-4.066-5.396-8.221-9.817-12.354-13.15 3.493-8.424 7.521-24.252-2.04-39.903-2.067-3.384-5.482-5.771-9.369-6.552-17.984-3.606-31.467 5.606-38.18 11.777-4.55-2.739-10.128-5.124-16.592-7.092-4.285-1.303-8.827-.548-12.457 2.079-3.608 2.61-5.734 6.657-5.833 11.102-.093 4.149.371 7.911 1.095 11.212-4.151-.003-8.397.447-12.672 1.5-13.166 3.247-24.931 11.479-33.128 23.181-2.377 3.393-1.553 8.069 1.839 10.445 3.393 2.377 8.069 1.554 10.446-1.84 6.026-8.602 14.932-14.879 24.434-17.222 23.149-5.711 54.307 13.389 68.877 34.807 3.676 5.403 5.889 10.886 6.766 16.761 1.793 12.021-2.338 24.978-11.053 34.661-13.17 14.635-37.883 32.044-80.912 32.043-.153 0-.311-.001-.464-.001-5.828-.017-10.7-3.424-12.715-8.892-8.279-22.46-10.464-43.722-6.495-63.196.827-4.059-1.792-8.02-5.852-8.847-4.057-.831-8.019 1.793-8.847 5.851-4.534 22.249-2.139 46.265 7.119 71.38 4.175 11.327 14.673 18.669 26.746 18.704.173 0 .339.001.511.001 48.539-.002 76.849-20.108 92.059-37.01 11.676-12.974 17.186-30.51 14.739-46.907-.526-3.524-1.437-6.983-2.683-10.37 3.353-.455 7.047-1.308 10.91-2.818 4.141-1.619 7.212-5.004 8.427-9.289zm-27.261-2.503c-8.561-11.823-21.101-22.749-34.762-30.22-5.441-2.975-12.178-6.006-19.667-7.988-1.147-2.807-2.39-6.966-2.465-11.94 4.955 1.58 9.269 3.469 12.529 5.487 5.454 3.379 12.509 2.678 17.157-1.705 4.385-4.135 13.452-10.697 25.118-8.506 6.065 10.208 3.009 20.974.63 26.512-2.521 5.868-.76 12.735 4.286 16.701 3.016 2.37 6.27 5.773 9.455 9.884-4.821 1.68-9.252 1.909-12.281 1.775z"/><path d="m238.569 281.009c2.366 0 4.694-1.117 6.153-3.203l4.205-6.014c2.374-3.395 1.546-8.07-1.849-10.444-3.394-2.375-8.072-1.547-10.444 1.849l-4.205 6.014c-2.374 3.395-1.546 8.07 1.849 10.444 1.308.914 2.806 1.354 4.291 1.354z"/><path d="m273.553 305.474c2.366 0 4.694-1.117 6.153-3.203l4.205-6.014c2.374-3.395 1.546-8.071-1.849-10.444-3.394-2.375-8.07-1.547-10.444 1.849l-4.205 6.014c-2.374 3.395-1.546 8.071 1.849 10.444 1.308.914 2.807 1.354 4.291 1.354z"/><path d="m230.046 309.862-4.205 6.014c-2.374 3.395-1.546 8.071 1.849 10.444 1.308.915 2.807 1.354 4.291 1.354 2.366 0 4.694-1.117 6.153-3.203l4.205-6.014c2.374-3.395 1.546-8.071-1.849-10.444-3.394-2.374-8.071-1.546-10.444 1.849z"/><path d="m424.633 435.962c0-6.764 0-13.527 0-20.291 0-12.178 0-24.356 0-36.533 0-.796 0-1.592 0-2.387 0-4.143-3.358-7.5-7.5-7.5s-7.5 3.357-7.5 7.5v15.519h-307.301v-217.297h307.301v166.86c0 4.143 3.358 7.5 7.5 7.5s7.5-3.357 7.5-7.5c0 0 0-109.224 0-174.354 0-.002 0-.004 0-.004s0-.006 0-.008c0-27.657 0-47.362 0-47.362 0-.034-.004-.062-.005-.09-.004-.274-.023-.544-.056-.811-.01-.08-.024-.158-.036-.238-.036-.23-.081-.456-.137-.679-.018-.071-.035-.142-.055-.212-.167-.592-.404-1.153-.703-1.676-.012-.021-.02-.044-.033-.066l-27.031-46.265c9.313-.82 16.645-8.652 16.645-18.174v-33.638c.001-10.067-8.189-18.256-18.255-18.256h-53.651c-4.142 0-7.5 3.357-7.5 7.5s3.358 7.5 7.5 7.5h53.651c1.795 0 3.256 1.461 3.256 3.256v33.638c0 1.795-1.46 3.256-3.256 3.256h-10.433c-.335-.046-.675-.071-1.018-.071h-255.067c-.344 0-.683.025-1.018.071h-10.433c-1.795 0-3.256-1.461-3.256-3.256v-33.638c0-1.795 1.46-3.256 3.256-3.256h189.985c4.142 0 7.5-3.357 7.5-7.5s-3.358-7.5-7.5-7.5h-189.985c-10.066 0-18.256 8.189-18.256 18.256v33.638c0 9.523 7.332 17.355 16.645 18.174l-27.031 46.265c-.013.021-.021.044-.033.066-.299.522-.536 1.084-.703 1.676-.02.071-.037.141-.055.212-.056.223-.101.449-.137.679-.012.08-.027.158-.036.238-.032.267-.052.537-.056.811 0 .028-.004.056-.005.102v26.928 20.427 232.296.008 34.614c0 6.944-.89 13.186 2.683 19.357 2.734 4.723 5.506 9.424 8.259 14.136 6.278 10.745 12.555 21.49 18.833 32.235.501.858 1.003 1.717 1.504 2.575 3.414 5.842 9.737 9.471 16.502 9.471h241.738c6.765 0 13.089-3.629 16.503-9.472l30.255-51.784c.012-.021.02-.044.033-.066 2.113-3.738.992-10.631.992-14.88zm-291.921-365.813h246.541l24.811 42.467h-296.164zm-30.38 57.467h307.301v32.356h-307.301zm278.071 367.509c-.735 1.258-2.096 2.039-3.552 2.039h-241.737c-1.456 0-2.817-.781-3.552-2.038l-23.662-40.501h296.165zm29.23-55.5h-307.301v-32.356h307.301z"/></svg>