<svg id="Layer_1" enable-background="new 0 0 256 256" height="512" viewBox="0 0 256 256" width="512" xmlns="http://www.w3.org/2000/svg"><g><g><path d="m200.897 21.686v212.627c0 8.384-6.803 15.186-15.186 15.186h-115.424c-8.384 0-15.186-6.803-15.186-15.186v-212.627c0-8.384 6.802-15.186 15.186-15.186h115.423c8.385 0 15.187 6.803 15.187 15.186z" fill="#afafaf"/></g><g><path d="m55.103 38.902h145.796v178.195h-145.796z" fill="#f0c020"/></g><g><path d="m191.943 208.146h-5c-1.381 0-2.5-1.119-2.5-2.5s1.119-2.5 2.5-2.5h5c1.381 0 2.5 1.119 2.5 2.5s-1.119 2.5-2.5 2.5zm-15 0h-111.872c-1.381 0-2.5-1.119-2.5-2.5v-156.591c0-1.381 1.119-2.5 2.5-2.5s2.5 1.119 2.5 2.5v154.091h109.372c1.381 0 2.5 1.119 2.5 2.5s-1.119 2.5-2.5 2.5z" fill="#f9e5af"/></g><g><path d="m157.88 108.12v49.76h-59.76v-59.76h52.26l-22.74 30.32-10.15-11.6c-2.18-2.49-5.97-2.74-8.46-.56-2.5 2.18-2.75 5.97-.57 8.46l15.02 17.17c2.52 2.87 7.04 2.7 9.32-.35z" fill="#efefef"/></g><g><path d="m166.47 86.67c-2.65-1.99-6.41-1.46-8.4 1.2l-7.69 10.25-22.74 30.32-10.15-11.6c-2.18-2.49-5.97-2.74-8.46-.56-2.5 2.18-2.75 5.97-.57 8.46l15.02 17.17c2.52 2.87 7.04 2.7 9.32-.35l25.08-33.44 9.79-13.06c1.99-2.65 1.45-6.41-1.2-8.39z" fill="#13bf6d"/></g><g><circle cx="86.91" cy="217.1" r="2.5"/><path d="m115.97 230.8c-1.38 0-2.5 1.12-2.5 2.5s1.12 2.5 2.5 2.5h24.061c1.38 0 2.5-1.12 2.5-2.5s-1.12-2.5-2.5-2.5z"/><path d="m147.439 25.2c1.38 0 2.5-1.12 2.5-2.5 0-1.381-1.12-2.5-2.5-2.5h-1.239c-1.381 0-2.5 1.119-2.5 2.5 0 1.38 1.119 2.5 2.5 2.5z"/><path d="m106.06 22.7c0 1.38 1.12 2.5 2.5 2.5h24.299c1.381 0 2.5-1.12 2.5-2.5 0-1.381-1.119-2.5-2.5-2.5h-24.299c-1.38 0-2.5 1.119-2.5 2.5z"/><circle cx="182.2" cy="249.5" r="2.5"/><path d="m185.71 4h-67.69c-1.38 0-2.5 1.12-2.5 2.5s1.12 2.5 2.5 2.5h.01 67.68c6.979.01 12.67 5.7 12.689 12.689v14.71h-140.799v-14.71c.01-6.989 5.71-12.679 12.69-12.689h27.73c1.38 0 2.5-1.12 2.5-2.5s-1.12-2.5-2.5-2.5h-27.73c-9.75 0-17.69 7.939-17.69 17.689v212.62c0 9.75 7.94 17.69 17.69 17.69h101.91c1.38 0 2.5-1.12 2.5-2.5 0-1.37-1.11-2.49-2.49-2.5 0 0 0 0-.01 0h-101.91c-6.98-.01-12.68-5.7-12.69-12.69v-14.709h19.31c1.38 0 2.5-1.12 2.5-2.5s-1.12-2.5-2.5-2.5h-19.31v-173.2h140.8v173.2h-101.49c-1.38 0-2.5 1.12-2.5 2.5 0 1.363 1.099 2.5 2.51 2.5h101.479v14.71c0 4.96-2.92 9.49-7.43 11.55-1.26.579-1.819 2.067-1.24 3.311.534 1.186 1.975 1.845 3.311 1.24 6.29-2.86 10.359-9.181 10.359-16.101 0-8.375 0-198.532 0-212.62 0-9.751-7.939-17.69-17.689-17.69z"/><circle cx="108.02" cy="6.5" r="2.5"/><path d="m157.88 160.38c1.387 0 2.5-1.114 2.5-2.5v-48.932l9.29-12.388c2.834-3.763 2.021-9.095-1.7-11.89-3.845-2.899-9.161-1.967-11.9 1.7l-6.939 9.25h-51.011c-1.367 0-2.5 1.111-2.5 2.5v59.76c0 1.396 1.125 2.5 2.5 2.5zm2.189-71.01c1.099-1.482 3.248-1.926 4.9-.7h.01c1.512 1.135 1.867 3.297.69 4.89l-34.87 46.5c-1.342 1.784-3.962 1.875-5.44.2l-15.02-17.17c-1.242-1.419-1.148-3.627.33-4.93 1.481-1.278 3.676-1.124 4.94.33l10.15 11.6c1.022 1.166 2.91 1.143 3.88-.15zm-59.449 11.25h44.76c-.569.758-15.133 20.173-17.89 23.85l-8.12-9.28c-3.101-3.544-8.492-3.877-11.99-.79-3.531 3.073-3.895 8.453-.8 11.98l15.02 17.18c3.591 4.103 10.007 3.778 13.2-.5l20.58-27.439v39.76h-54.76z"/></g></g></svg>