<?xml version="1.0" encoding="iso-8859-1"?>
<!-- Generator: Adobe Illustrator 19.0.0, SVG Export Plug-In . SVG Version: 6.00 Build 0)  -->
<svg version="1.1" id="Layer_1" xmlns="http://www.w3.org/2000/svg" xmlns:xlink="http://www.w3.org/1999/xlink" x="0px" y="0px"
	 viewBox="0 0 512 512" style="enable-background:new 0 0 512 512;" xml:space="preserve">
<path style="fill:#FFD042;" d="M302.259,504.115h-92.517c-46.451,0-84.107-37.656-84.107-84.107V277.027
	c0-46.451,37.656-84.107,84.107-84.107h92.517c46.451,0,84.107,37.656,84.107,84.107v142.982
	C386.366,466.459,348.71,504.115,302.259,504.115z"/>
<polygon style="fill:#A4D64D;" points="222.357,113.018 256,7.885 289.643,113.018 "/>
<polygon style="fill:#8EC42F;" points="256,129.84 197.125,66.76 209.741,159.277 302.259,159.277 314.875,66.76 "/>
<polygon style="fill:#A4D64D;" points="277.027,150.867 256,79.376 234.973,150.867 167.688,129.84 213.947,192.92 298.053,192.92 
	344.312,129.84 "/>
<polygon style="fill:#76B030;" points="277.027,150.867 256,79.376 234.973,150.867 167.688,129.84 213.947,192.92 298.053,192.92 
	344.312,129.84 "/>
<polygon style="fill:#FFD042;" points="316.977,350.62 377.955,411.598 386.366,403.187 386.366,298.053 377.955,289.643 "/>
<polygon style="fill:#FFC412;" points="342.209,350.62 386.366,306.464 386.366,298.053 377.955,289.643 316.977,350.62 
	377.955,411.598 386.366,403.187 386.366,394.776 "/>
<g>
	<polygon style="fill:#FFD042;" points="386.366,298.053 386.366,281.232 377.955,289.643 	"/>
	
		<rect x="212.882" y="307.504" transform="matrix(-0.7071 0.7071 -0.7071 -0.7071 684.9385 417.5273)" style="fill:#FFD042;" width="86.23" height="86.23"/>
</g>
<polygon style="fill:#FFC412;" points="222.357,350.62 269.667,303.31 256,289.643 195.023,350.62 256,411.598 269.667,397.93 "/>
<path style="fill:#FFD042;" d="M377.955,289.643l8.411-8.411v-4.205c0-31.876-17.736-59.609-43.875-73.874l-25.513,25.513
	L377.955,289.643z"/>
<path style="fill:#FFC412;" d="M342.209,228.665l15.158-15.158c-4.558-3.957-9.539-7.441-14.877-10.355l-25.513,25.513
	l60.977,60.977l8.411-8.411v-4.205c0-1.453-0.049-2.893-0.122-4.327L342.209,228.665z"/>
<polygon style="fill:#FFD042;" points="256,411.598 195.023,472.575 226.563,504.115 285.437,504.115 316.977,472.575 "/>
<polygon style="fill:#FFC412;" points="253.897,499.91 222.357,468.37 267.565,423.162 256,411.598 195.023,472.575 
	226.563,504.115 285.437,504.115 289.643,499.91 "/>
<g>
	<polygon style="fill:#FFD042;" points="377.955,411.598 386.366,420.008 386.366,403.187 	"/>
	<path style="fill:#FFD042;" d="M134.045,411.598l-8.411,8.411c0,32.989,19.003,61.525,46.65,75.304l22.738-22.737L134.045,411.598z
		"/>
</g>
<path style="fill:#FFC412;" d="M144.597,422.15l-10.552-10.552l-8.411,8.411c0,32.989,19.003,61.525,46.65,75.304l7.143-7.142
	C158.848,473.285,145.278,449.325,144.597,422.15z"/>
<path style="fill:#FFD042;" d="M316.977,472.575l22.738,22.737c27.647-13.779,46.65-42.315,46.65-75.304l-8.411-8.411
	L316.977,472.575z"/>
<path style="fill:#FFC412;" d="M342.209,468.762l44.011-44.011c0.087-1.571,0.145-3.15,0.145-4.743l-8.411-8.411l-60.977,60.977
	l22.738,22.737c6.304-3.141,12.151-7.058,17.433-11.612L342.209,468.762z"/>
<path style="fill:#FFD042;" d="M195.023,228.665l-25.513-25.513c-26.139,14.266-43.875,41.998-43.875,73.874v4.205l8.411,8.411
	L195.023,228.665z"/>
<path style="fill:#FFC412;" d="M144.559,277.027c0-26.977,12.704-50.982,32.453-66.373l-7.501-7.501
	c-26.139,14.266-43.875,41.998-43.875,73.874v4.205l8.411,8.411l10.513-10.513V277.027z"/>
<polygon style="fill:#FFD042;" points="256,289.643 316.977,228.665 281.232,192.92 230.768,192.92 195.023,228.665 "/>
<polygon style="fill:#FFC412;" points="222.357,228.665 258.103,192.92 230.768,192.92 195.023,228.665 256,289.643 
	269.667,275.975 "/>
<g>
	<polygon style="fill:#FFD042;" points="125.634,281.232 125.634,298.053 134.045,289.643 	"/>
	<polygon style="fill:#FFD042;" points="125.634,403.187 125.634,420.008 134.045,411.598 	"/>
	<polygon style="fill:#FFD042;" points="195.023,350.62 134.045,289.643 125.634,298.053 125.634,403.187 134.045,411.598 	"/>
</g>
<polygon style="fill:#FFC412;" points="144.559,300.156 134.045,289.643 125.634,298.053 125.634,403.187 134.045,411.598 
	144.559,401.084 "/>
<path d="M386.366,322.76c4.355,0,7.885-3.529,7.885-7.885v-37.848c0-34.94-19.581-65.391-48.345-80.96
	c-0.28-0.171-0.568-0.323-0.862-0.455c-9.74-5.139-20.505-8.58-31.904-9.93l37.531-51.178c2.059-2.807,2.005-6.744-0.127-9.495
	c-1.995-2.575-5.474-3.671-8.583-2.694l-27.891,8.716l8.619-63.204c0.451-3.311-1.304-6.628-4.292-8.119
	c-3.09-1.542-6.928-0.852-9.285,1.674l-20.638,22.112L263.51,5.482C262.476,2.253,259.389,0,256,0s-6.476,2.253-7.51,5.482
	l-24.963,78.01L202.89,61.38c-2.356-2.526-6.196-3.216-9.285-1.674c-2.988,1.492-4.744,4.809-4.292,8.119l8.619,63.205
	l-27.892-8.717c-3.11-0.975-6.588,0.119-8.583,2.694c-2.132,2.751-2.186,6.688-0.127,9.495l37.531,51.178
	c-11.4,1.349-22.165,4.791-31.904,9.93c-0.294,0.132-0.582,0.285-0.862,0.455c-28.763,15.57-48.345,46.021-48.345,80.961v142.982
	c0,34.939,19.581,65.39,48.344,80.959c0.281,0.172,0.57,0.325,0.866,0.458C179.748,508.172,194.305,512,209.741,512h92.517
	c15.437,0,29.994-3.828,42.782-10.574c0.297-0.134,0.586-0.286,0.866-0.458c28.763-15.569,48.344-46.02,48.344-80.959v-71.491
	c0-4.356-3.53-7.885-7.885-7.885c-4.355,0-7.885,3.529-7.885,7.885v46.146l-2.628,2.628l-48.775-48.775l48.775-48.775l2.628,2.628
	v12.504C378.48,319.23,382.011,322.76,386.366,322.76z M235.086,496.23l-27.86-27.86L256,419.595l48.775,48.775l-27.86,27.86
	H235.086z M315.926,217.514l-16.709-16.709h3.042c9.073,0,17.777,1.6,25.854,4.522L315.926,217.514z M276.914,200.805l27.86,27.86
	L256,277.44l-48.775-48.775l27.86-27.86H276.914z M256,397.292l-48.775-48.775L256,299.743l48.775,48.775L256,397.292z
	 M133.52,399.92v-97.549l2.628-2.628l48.775,48.775L133.52,399.92z M209.741,200.805h3.042l-16.709,16.709l-12.187-12.187
	C191.964,202.405,200.668,200.805,209.741,200.805z M196.074,239.817l48.775,48.775l-48.775,48.775l-48.775-48.775L196.074,239.817z
	 M196.074,359.669l48.775,48.775l-48.775,48.775l-48.775-48.775L196.074,359.669z M315.926,457.218l-48.775-48.775l48.775-48.775
	l48.775,48.775L315.926,457.218z M267.152,288.591l48.775-48.775l48.775,48.775l-48.775,48.775L267.152,288.591z M378.426,274.866
	l-2.574,2.574l-48.775-48.775l15.975-15.975C363.755,225.864,377.693,248.735,378.426,274.866z M297.445,136.225l-15.116,4.724
	l-6.209-21.11l27.59-29.56L297.445,136.225z M256,33.756l20.143,62.946l-5.191,5.563l-7.387-25.113
	c-0.987-3.357-4.067-5.66-7.564-5.66c-3.498,0-6.577,2.303-7.564,5.66l-7.387,25.113l-5.191-5.563L256,33.756z M208.29,90.278
	l27.59,29.56l-6.209,21.11l-15.115-4.724L208.29,90.278z M232.621,158.392c4.15,1.295,8.691-1.134,9.917-5.301L256,107.32
	l13.462,45.771c1.225,4.165,5.768,6.597,9.917,5.301l44.389-13.871l-29.712,40.514h-76.116l-29.711-40.514L232.621,158.392z
	 M168.947,212.69l15.975,15.975l-48.775,48.775l-2.574-2.574C134.307,248.735,148.245,225.864,168.947,212.69z M133.574,422.169
	l2.574-2.574l48.775,48.775l-15.975,15.975C148.245,471.171,134.307,448.3,133.574,422.169z M183.887,491.708l12.187-12.187
	l16.709,16.709h-3.042C200.668,496.23,191.964,494.63,183.887,491.708z M299.217,496.23l16.709-16.709l12.187,12.187
	c-8.077,2.922-16.781,4.522-25.854,4.522H299.217z M343.053,484.345l-15.975-15.975l48.775-48.775l2.574,2.574
	C377.693,448.3,363.755,471.171,343.053,484.345z"/>
<g>
</g>
<g>
</g>
<g>
</g>
<g>
</g>
<g>
</g>
<g>
</g>
<g>
</g>
<g>
</g>
<g>
</g>
<g>
</g>
<g>
</g>
<g>
</g>
<g>
</g>
<g>
</g>
<g>
</g>
</svg>
