<?xml version="1.0" encoding="iso-8859-1"?>
<!-- Generator: Adobe Illustrator 19.0.0, SVG Export Plug-In . SVG Version: 6.00 Build 0)  -->
<svg version="1.1" id="Layer_1" xmlns="http://www.w3.org/2000/svg" xmlns:xlink="http://www.w3.org/1999/xlink" x="0px" y="0px"
	 viewBox="0 0 512 512" style="enable-background:new 0 0 512 512;" xml:space="preserve">
<path style="fill:#8EC42F;" d="M423.648,105.331c-4.221,25.149-26.081,44.315-52.429,44.315c-26.348,0-48.207-19.167-52.429-44.315
	H7.837c0,137.057,88.629,301.341,248.163,301.341s248.163-164.284,248.163-301.341L423.648,105.331L423.648,105.331z"/>
<path style="fill:#76B030;" d="M78.74,131.919c0-8.956,0.388-17.82,1.112-26.588H7.837c0,130.521,80.381,285.729,225.829,300.236
	C140.848,349.771,78.74,248.104,78.74,131.919z"/>
<path style="fill:#D2EB8D;" d="M423.648,105.331c-4.221,25.149-26.081,44.315-52.429,44.315c-26.348,0-48.207-19.167-52.429-44.315
	H7.837c0,137.057,111.106,248.163,248.163,248.163s248.163-111.106,248.163-248.163L423.648,105.331L423.648,105.331z"/>
<path style="fill:#A4D64D;" d="M78.74,131.919c0-8.956,0.388-17.82,1.112-26.588H7.837c0,97.528,56.268,181.899,138.103,222.464
	C103.833,273.728,78.74,205.757,78.74,131.919z"/>
<path style="fill:#FF6C5C;" d="M423.648,105.331c-4.221,25.149-26.081,44.315-52.429,44.315c-26.348,0-48.207-19.167-52.429-44.315
	H43.289c0,117.477,95.234,212.711,212.711,212.711s212.711-95.234,212.711-212.711H423.648z"/>
<path style="fill:#FF4A36;" d="M78.74,131.919c0-8.956,0.388-17.82,1.112-26.588H43.289c0,57.031,22.448,108.817,58.984,147.013
	C87.115,215.181,78.74,174.531,78.74,131.919z"/>
<path d="M512,105.33c0-4.328-3.509-7.837-7.837-7.837h-80.516c-3.827,0-7.095,2.765-7.728,6.539
	c-3.675,21.889-22.474,37.776-44.7,37.776c-22.227,0-41.026-15.888-44.701-37.776c-0.633-3.774-3.901-6.539-7.728-6.539H7.837
	C3.509,97.493,0,101.002,0,105.33c0,35.092,5.773,72.173,16.696,107.236c11.477,36.846,27.979,70.297,49.048,99.423
	c22.769,31.479,49.784,56.268,80.294,73.677c33.538,19.137,70.534,28.841,109.963,28.841c50.991,0,97.342-15.985,137.764-47.51
	c3.413-2.661,4.022-7.586,1.36-10.999c-2.662-3.414-7.586-4.022-10.999-1.36c-37.603,29.326-80.71,44.196-128.125,44.196
	c-92.087,0-162.395-58.638-202.517-136.852c6.6,8.496,13.768,16.637,21.498,24.367c48.352,48.352,112.639,74.981,181.019,74.981
	s132.668-26.628,181.019-74.981c7.52-7.52,14.514-15.427,20.965-23.674c-13.181,25.701-29.396,49.072-48.112,68.631
	c-2.717,2.839-2.882,7.404-0.366,10.426c2.953,3.546,8.498,3.746,11.69,0.41c54.636-57.096,89.067-144.841,90.724-230.363
	C511.973,109.634,512,107.484,512,105.33z M256,345.656c-129.893,0-236.033-103.588-240.185-232.49h19.79
	c1.806,50.967,21.159,99.722,54.985,138.047c2.864,3.244,7.816,3.555,11.061,0.69c3.244-2.864,3.554-7.816,0.69-11.061
	c-31.297-35.461-49.269-80.531-51.066-127.675h261.251c7.335,26.039,31.044,44.315,58.693,44.315s51.358-18.276,58.693-44.315
	h30.815C456.589,222.514,366.341,310.205,256,310.205c-47.1,0-91.377-15.539-128.046-44.935c-3.378-2.707-8.309-2.164-11.016,1.213
	c-2.707,3.376-2.164,8.309,1.213,11.015c38.916,31.198,87.872,48.38,137.85,48.38c118.987,0,216.25-94.718,220.394-212.712h19.791
	C492.033,242.069,385.893,345.656,256,345.656z"/>
<path d="M256,210.66c4.328,0,7.837-3.509,7.837-7.837v-8.863c0-4.328-3.509-7.837-7.837-7.837s-7.837,3.509-7.837,7.837v8.863
	C248.163,207.151,251.672,210.66,256,210.66z"/>
<path d="M312.5,190.638c3.019,3.019,8.064,3.019,11.082,0c3.06-3.061,3.06-8.023,0-11.082l-8.863-8.863
	c-3.06-3.061-8.023-3.061-11.082,0c-3.06,3.061-3.06,8.023,0,11.082L312.5,190.638z"/>
<path d="M193.959,192.934c2.005,0,4.011-0.765,5.541-2.296l8.863-8.863c3.061-3.061,3.061-8.023,0-11.082
	c-3.061-3.061-8.023-3.061-11.082,0l-8.863,8.863c-3.061,3.061-3.061,8.023,0,11.082
	C189.948,192.168,191.954,192.934,193.959,192.934z"/>
<g>
</g>
<g>
</g>
<g>
</g>
<g>
</g>
<g>
</g>
<g>
</g>
<g>
</g>
<g>
</g>
<g>
</g>
<g>
</g>
<g>
</g>
<g>
</g>
<g>
</g>
<g>
</g>
<g>
</g>
</svg>
